<mxfile host="app.diagrams.net" modified="2023-11-26T11:45:32.648Z" agent="Mozilla/5.0 (Macintosh; Intel Mac OS X 10_15_7) AppleWebKit/537.36 (KHTML, like Gecko) Chrome/119.0.0.0 Safari/537.36" etag="YvC3PpUDcMH05SDOgaXh" version="22.1.4" type="device">
  <diagram name="Page-1" id="loQS6nplEUwisiQxQiiV">
    <mxGraphModel dx="1026" dy="687" grid="1" gridSize="10" guides="1" tooltips="1" connect="1" arrows="1" fold="1" page="1" pageScale="1" pageWidth="827" pageHeight="1169" math="0" shadow="0">
      <root>
        <mxCell id="0" />
        <mxCell id="1" parent="0" />
        <mxCell id="9asXnti6_Ti8V6x6D4D_-7" style="edgeStyle=orthogonalEdgeStyle;rounded=0;orthogonalLoop=1;jettySize=auto;html=1;entryX=1;entryY=0.5;entryDx=0;entryDy=0;" edge="1" parent="1" source="9asXnti6_Ti8V6x6D4D_-1" target="9asXnti6_Ti8V6x6D4D_-2">
          <mxGeometry relative="1" as="geometry" />
        </mxCell>
        <mxCell id="9asXnti6_Ti8V6x6D4D_-9" style="edgeStyle=orthogonalEdgeStyle;rounded=0;orthogonalLoop=1;jettySize=auto;html=1;entryX=0;entryY=0.5;entryDx=0;entryDy=0;" edge="1" parent="1" source="9asXnti6_Ti8V6x6D4D_-1" target="9asXnti6_Ti8V6x6D4D_-3">
          <mxGeometry relative="1" as="geometry" />
        </mxCell>
        <mxCell id="9asXnti6_Ti8V6x6D4D_-1" value="GameManager" style="swimlane;whiteSpace=wrap;html=1;" vertex="1" parent="1">
          <mxGeometry x="330" y="100" width="200" height="200" as="geometry" />
        </mxCell>
        <mxCell id="9asXnti6_Ti8V6x6D4D_-2" value="Board" style="swimlane;whiteSpace=wrap;html=1;" vertex="1" parent="1">
          <mxGeometry x="30" y="100" width="200" height="200" as="geometry" />
        </mxCell>
        <mxCell id="9asXnti6_Ti8V6x6D4D_-17" style="edgeStyle=orthogonalEdgeStyle;rounded=0;orthogonalLoop=1;jettySize=auto;html=1;exitX=0.5;exitY=1;exitDx=0;exitDy=0;entryX=0.5;entryY=0;entryDx=0;entryDy=0;" edge="1" parent="1" source="9asXnti6_Ti8V6x6D4D_-3" target="9asXnti6_Ti8V6x6D4D_-5">
          <mxGeometry relative="1" as="geometry" />
        </mxCell>
        <mxCell id="9asXnti6_Ti8V6x6D4D_-3" value="ResultManager" style="swimlane;whiteSpace=wrap;html=1;" vertex="1" parent="1">
          <mxGeometry x="627" y="100" width="200" height="200" as="geometry" />
        </mxCell>
        <mxCell id="9asXnti6_Ti8V6x6D4D_-4" value="PlayingPiece" style="swimlane;whiteSpace=wrap;html=1;" vertex="1" parent="1">
          <mxGeometry x="190" y="360" width="200" height="200" as="geometry" />
        </mxCell>
        <mxCell id="9asXnti6_Ti8V6x6D4D_-13" style="edgeStyle=orthogonalEdgeStyle;rounded=0;orthogonalLoop=1;jettySize=auto;html=1;entryX=1;entryY=0.5;entryDx=0;entryDy=0;" edge="1" parent="1" source="9asXnti6_Ti8V6x6D4D_-5" target="9asXnti6_Ti8V6x6D4D_-4">
          <mxGeometry relative="1" as="geometry" />
        </mxCell>
        <mxCell id="9asXnti6_Ti8V6x6D4D_-5" value="Player" style="swimlane;whiteSpace=wrap;html=1;" vertex="1" parent="1">
          <mxGeometry x="530" y="360" width="200" height="200" as="geometry" />
        </mxCell>
        <mxCell id="9asXnti6_Ti8V6x6D4D_-8" value="has-a" style="text;html=1;strokeColor=none;fillColor=none;align=center;verticalAlign=middle;whiteSpace=wrap;rounded=0;" vertex="1" parent="1">
          <mxGeometry x="250" y="170" width="60" height="30" as="geometry" />
        </mxCell>
        <mxCell id="9asXnti6_Ti8V6x6D4D_-10" value="has-a" style="text;html=1;strokeColor=none;fillColor=none;align=center;verticalAlign=middle;whiteSpace=wrap;rounded=0;" vertex="1" parent="1">
          <mxGeometry x="550" y="170" width="60" height="30" as="geometry" />
        </mxCell>
        <mxCell id="9asXnti6_Ti8V6x6D4D_-11" style="edgeStyle=orthogonalEdgeStyle;rounded=0;orthogonalLoop=1;jettySize=auto;html=1;entryX=0.18;entryY=-0.01;entryDx=0;entryDy=0;entryPerimeter=0;" edge="1" parent="1" source="9asXnti6_Ti8V6x6D4D_-1" target="9asXnti6_Ti8V6x6D4D_-5">
          <mxGeometry relative="1" as="geometry" />
        </mxCell>
        <mxCell id="9asXnti6_Ti8V6x6D4D_-12" value="has-a" style="text;html=1;strokeColor=none;fillColor=none;align=center;verticalAlign=middle;whiteSpace=wrap;rounded=0;" vertex="1" parent="1">
          <mxGeometry x="460" y="310" width="60" height="30" as="geometry" />
        </mxCell>
        <mxCell id="9asXnti6_Ti8V6x6D4D_-14" value="has-a" style="text;html=1;strokeColor=none;fillColor=none;align=center;verticalAlign=middle;whiteSpace=wrap;rounded=0;" vertex="1" parent="1">
          <mxGeometry x="430" y="430" width="60" height="30" as="geometry" />
        </mxCell>
        <mxCell id="9asXnti6_Ti8V6x6D4D_-18" value="has-a" style="text;html=1;strokeColor=none;fillColor=none;align=center;verticalAlign=middle;whiteSpace=wrap;rounded=0;" vertex="1" parent="1">
          <mxGeometry x="650" y="330" width="60" height="30" as="geometry" />
        </mxCell>
      </root>
    </mxGraphModel>
  </diagram>
</mxfile>
